<svg
 xmlns="http://www.w3.org/2000/svg"
 xmlns:xlink="http://www.w3.org/1999/xlink"
 width="512px" height="512px">
<path fill-rule="evenodd"  fill="rgb(255, 255, 255)"
 d="M0.000,0.000 L512.000,0.000 L512.000,512.000 L0.000,512.000 L0.000,0.000 Z"/>
<path fill-rule="evenodd"  fill="rgb(0, 0, 102)"
 d="M0.000,511.990 L0.000,-0.010 L512.000,-0.010 L512.000,511.990 L0.000,511.990 ZM380.133,40.000 L131.867,40.000 C123.104,40.000 116.000,47.104 116.000,55.867 C116.000,64.630 123.104,71.733 131.867,71.733 L380.133,71.733 C388.896,71.733 396.000,64.630 396.000,55.867 C396.000,47.104 388.896,40.000 380.133,40.000 ZM256.000,134.000 C168.187,134.000 97.000,205.187 97.000,293.000 C97.000,380.813 168.187,452.000 256.000,452.000 C343.813,452.000 415.000,380.813 415.000,293.000 C415.000,205.187 343.813,134.000 256.000,134.000 ZM353.344,208.619 C352.123,212.786 350.686,216.391 349.033,219.427 C347.375,222.467 345.505,223.985 343.414,223.985 C341.148,223.985 338.490,223.163 335.445,221.511 C332.395,219.863 328.691,218.039 324.339,216.041 C319.983,214.047 314.887,212.265 309.052,210.702 C303.214,209.140 296.379,208.358 288.540,208.358 C282.440,208.358 276.997,209.140 272.208,210.702 C267.415,212.265 263.454,214.393 260.319,217.083 C257.183,219.777 254.786,222.943 253.133,226.589 C251.475,230.235 250.650,234.142 250.650,238.309 C250.650,243.693 252.871,248.206 257.314,251.852 C261.756,255.498 267.284,258.928 273.907,262.139 C280.525,265.354 287.666,268.695 295.334,272.166 C302.997,275.641 310.139,279.979 316.761,285.188 C323.380,290.397 328.867,296.737 333.223,304.200 C337.576,311.667 339.756,321.043 339.756,332.327 C339.756,345.524 337.229,357.720 332.178,368.919 C327.124,380.118 319.766,389.799 310.098,397.958 C300.429,406.121 288.671,412.501 274.821,417.100 C260.972,421.698 245.334,424.001 227.916,424.001 C219.555,424.001 211.585,423.391 204.007,422.178 C196.429,420.962 189.635,419.484 183.625,417.751 C177.615,416.017 172.519,414.019 168.338,411.761 C164.157,409.506 161.022,407.423 158.931,405.510 C157.535,404.123 156.534,402.646 155.926,401.083 C155.314,399.520 155.012,397.526 155.012,395.093 C155.012,393.530 155.142,391.536 155.403,389.103 C155.665,386.673 156.098,383.983 156.710,381.029 C157.318,378.079 158.017,375.129 158.800,372.174 C159.584,369.224 160.499,366.534 161.544,364.101 C162.589,361.671 163.720,359.718 164.941,358.241 C166.158,356.768 167.464,356.027 168.861,356.027 C171.298,356.027 173.997,357.069 176.961,359.152 C179.922,361.236 183.755,363.539 188.459,366.054 C193.162,368.573 198.952,370.917 205.836,373.086 C212.716,375.259 221.294,376.341 231.575,376.341 C238.716,376.341 244.942,375.519 250.258,373.867 C255.570,372.219 259.967,369.920 263.454,366.965 C266.937,364.015 269.505,360.629 271.163,356.808 C272.816,352.991 273.645,348.910 273.645,344.568 C273.645,338.492 271.510,333.544 267.243,329.723 C262.973,325.906 257.616,322.345 251.173,319.045 C244.726,315.749 237.715,312.363 230.138,308.888 C222.560,305.417 215.545,301.164 209.102,296.126 C202.655,291.092 197.298,284.842 193.032,277.375 C188.761,269.911 186.630,260.536 186.630,249.247 C186.630,236.921 188.982,225.462 193.685,214.869 C198.389,204.281 205.268,195.035 214.328,187.133 C223.384,179.234 234.359,173.069 247.253,168.642 C260.143,164.214 274.776,162.000 291.153,162.000 C298.470,162.000 305.566,162.481 312.449,163.433 C319.329,164.389 325.515,165.647 331.002,167.209 C336.490,168.772 341.279,170.509 345.374,172.418 C349.465,174.331 352.385,176.239 354.128,178.148 C356.043,179.885 357.003,182.836 357.003,187.003 C357.003,189.086 356.696,192.171 356.088,196.248 C355.475,200.330 354.561,204.452 353.344,208.619 Z"/>
</svg>
