<svg
 xmlns="http://www.w3.org/2000/svg"
 xmlns:xlink="http://www.w3.org/1999/xlink"
 width="53.5px" height="56.5px">
<path fill-rule="evenodd"  stroke="rgb(213, 32, 39)" stroke-width="3px" stroke-linecap="butt" stroke-linejoin="miter" fill="none"
 d="M7.500,37.500 L45.500,37.500 C47.157,37.500 48.500,38.843 48.500,40.500 L48.500,48.500 C48.500,50.157 47.157,51.500 45.500,51.500 L7.500,51.500 C5.843,51.500 4.500,50.157 4.500,48.500 L4.500,40.500 C4.500,38.843 5.843,37.500 7.500,37.500 Z"/>
<path fill-rule="evenodd"  stroke="rgb(213, 32, 39)" stroke-width="3px" stroke-linecap="butt" stroke-linejoin="miter" fill="none"
 d="M7.500,22.360 L45.500,22.360 C47.157,22.360 48.500,23.703 48.500,25.360 L48.500,33.360 C48.500,35.017 47.157,36.360 45.500,36.360 L7.500,36.360 C5.843,36.360 4.500,35.017 4.500,33.360 L4.500,25.360 C4.500,23.703 5.843,22.360 7.500,22.360 Z"/>
<path fill-rule="evenodd"  stroke="rgb(213, 32, 39)" stroke-width="3px" stroke-linecap="butt" stroke-linejoin="miter" fill="none"
 d="M5.802,9.367 L43.349,3.516 C44.986,3.261 46.520,4.381 46.775,6.019 L47.699,11.947 C47.954,13.584 46.834,15.118 45.196,15.373 L7.650,21.224 C6.012,21.479 4.479,20.359 4.223,18.722 L3.300,12.793 C3.045,11.156 4.165,9.622 5.802,9.367 Z"/>
</svg>
