 <svg xmlns="http://www.w3.org/2000/svg" width="20" height="28" viewBox="0 0 20 32" fill="none">
              <path
                d="M10 0.605469C4.48597 0.605469 0 5.59841 0 11.7355C0 19.3519 8.94902 30.5331 9.33003 31.0054C9.68791 31.4491 10.3127 31.4483 10.67 31.0054C11.051 30.5331 20 19.3519 20 11.7355C19.9999 5.59841 15.514 0.605469 10 0.605469ZM10 17.3354C7.22575 17.3354 4.9688 14.8233 4.9688 11.7355C4.9688 8.64776 7.22581 6.13574 10 6.13574C12.7742 6.13574 15.0311 8.64782 15.0311 11.7356C15.0311 14.8234 12.7742 17.3354 10 17.3354Z"
                fill="currentColor" />
            </svg>
