<svg
 xmlns="http://www.w3.org/2000/svg"
 xmlns:xlink="http://www.w3.org/1999/xlink"
 width="367px" height="136px">
<path fill-rule="evenodd"  stroke="rgb(38, 30, 68)" stroke-width="3px" stroke-linecap="butt" stroke-linejoin="miter" fill="none"
 d="M31.485,31.331 L71.515,31.331 L71.515,91.669 L31.485,91.669 L31.485,31.331 Z"/>
<path fill-rule="evenodd"  stroke="rgb(38, 30, 68)" stroke-width="1px" stroke-linecap="butt" stroke-linejoin="miter" fill="none"
 d="M72.008,54.951 L31.613,32.951 L31.992,32.049 L72.387,54.049 L72.008,54.951 Z"/>
<path fill-rule="evenodd"  stroke="rgb(38, 30, 68)" stroke-width="1px" stroke-linecap="butt" stroke-linejoin="miter" fill="none"
 d="M32.166,55.504 L31.790,54.598 L71.834,32.496 L72.210,33.402 L32.166,55.504 Z"/>
<path fill-rule="evenodd"  stroke="rgb(38, 30, 68)" stroke-width="2px" stroke-linecap="butt" stroke-linejoin="miter" fill="none"
 d="M31.803,55.500 L31.803,54.500 L72.197,54.500 L72.197,55.500 L31.803,55.500 Z"/>
<path fill-rule="evenodd"  stroke="rgb(38, 30, 68)" stroke-width="2px" stroke-linecap="butt" stroke-linejoin="miter" fill="none"
 d="M40.048,86.000 L40.048,85.000 L63.952,85.000 L63.952,86.000 L40.048,86.000 Z"/>
<path fill-rule="evenodd"  stroke="rgb(38, 30, 68)" stroke-width="2px" stroke-linecap="butt" stroke-linejoin="miter" fill="none"
 d="M40.048,76.000 L40.048,75.000 L63.952,75.000 L63.952,76.000 L40.048,76.000 Z"/>
<path fill-rule="evenodd"  stroke="rgb(38, 30, 68)" stroke-width="2px" stroke-linecap="butt" stroke-linejoin="miter" fill="none"
 d="M40.048,66.000 L40.048,65.000 L63.952,65.000 L63.952,66.000 L40.048,66.000 Z"/>
<path fill-rule="evenodd"  stroke="rgb(38, 30, 68)" stroke-width="2px" stroke-linecap="butt" stroke-linejoin="miter" fill="none"
 d="M102.717,57.055 L112.081,62.504 L87.353,104.995 L76.121,113.550 L77.990,99.547 L102.717,57.055 Z"/>
<path fill-rule="evenodd"  stroke="rgb(38, 30, 68)" stroke-width="1px" stroke-linecap="butt" stroke-linejoin="miter" fill="none"
 d="M106.969,59.525 L107.833,60.028 L82.684,103.243 L81.820,102.740 L106.969,59.525 Z"/>
<path fill-rule="evenodd"  stroke="rgb(38, 30, 68)" stroke-width="4px" stroke-linecap="butt" stroke-linejoin="miter" fill="none"
 d="M67.000,4.906 C101.293,4.906 129.094,32.707 129.094,67.000 C129.094,101.293 101.293,129.094 67.000,129.094 C32.707,129.094 4.906,101.293 4.906,67.000 C4.906,32.707 32.707,4.906 67.000,4.906 Z"/>
<path fill-rule="evenodd"  stroke="rgb(38, 30, 68)" stroke-width="4px" stroke-linecap="butt" stroke-linejoin="miter" fill="none"
 d="M130.020,68.000 L130.020,67.000 L360.980,67.000 L360.980,68.000 L130.020,68.000 Z"/>
</svg>
