<svg
 xmlns="http://www.w3.org/2000/svg"
 xmlns:xlink="http://www.w3.org/1999/xlink"
 width="367px" height="136px">
<path fill-rule="evenodd"  stroke="rgb(38, 30, 68)" stroke-width="2px" stroke-linecap="butt" stroke-linejoin="miter" fill="none"
 d="M103.130,65.519 C104.763,66.553 99.978,77.037 92.443,88.934 C87.682,96.452 82.962,102.735 79.720,106.082 C79.528,106.026 76.521,104.122 76.427,104.123 C78.047,99.768 81.731,92.765 86.529,85.189 C94.065,73.291 101.497,64.485 103.130,65.519 Z"/>
<path fill-rule="evenodd"  stroke="rgb(38, 30, 68)" stroke-width="2px" stroke-linecap="butt" stroke-linejoin="miter" fill="none"
 d="M78.344,108.727 C79.385,110.257 78.500,112.221 77.501,113.798 C75.580,116.831 66.259,116.739 64.775,115.799 C63.291,114.859 70.055,114.155 69.900,109.575 C69.837,107.713 73.503,107.070 74.657,106.398 C74.888,106.639 78.304,108.802 78.344,108.727 Z"/>
<path fill-rule="evenodd"  stroke="rgb(38, 30, 68)" stroke-width="3px" stroke-linecap="butt" stroke-linejoin="miter" fill="none"
 d="M32.485,32.289 L72.515,32.289 L72.515,90.711 L32.485,90.711 L32.485,32.289 Z"/>
<path fill-rule="evenodd"  stroke="rgb(38, 30, 68)" stroke-width="1px" stroke-linecap="butt" stroke-linejoin="miter" fill="none"
 d="M57.708,49.855 L46.184,45.331 L46.292,45.145 L57.816,49.669 L57.708,49.855 Z"/>
<path fill-rule="evenodd"  stroke="rgb(38, 30, 68)" stroke-width="1px" stroke-linecap="butt" stroke-linejoin="miter" fill="none"
 d="M40.500,36.000 C42.433,36.000 44.000,37.567 44.000,39.500 C44.000,41.433 42.433,43.000 40.500,43.000 C38.567,43.000 37.000,41.433 37.000,39.500 C37.000,37.567 38.567,36.000 40.500,36.000 Z"/>
<path fill-rule="evenodd"  stroke="rgb(38, 30, 68)" stroke-width="1px" stroke-linecap="butt" stroke-linejoin="miter" fill="none"
 d="M58.486,50.034 L58.392,49.786 L71.852,38.358 L71.946,38.606 L58.486,50.034 Z"/>
<path fill-rule="evenodd"  stroke="rgb(38, 30, 68)" stroke-width="1px" stroke-linecap="butt" stroke-linejoin="miter" fill="none"
 d="M32.339,57.591 L32.213,57.071 L45.661,44.409 L45.787,44.929 L32.339,57.591 Z"/>
<path fill-rule="evenodd"  stroke="rgb(38, 30, 68)" stroke-width="2px" stroke-linecap="butt" stroke-linejoin="miter" fill="none"
 d="M32.803,56.500 L32.803,55.500 L73.197,55.500 L73.197,56.500 L32.803,56.500 Z"/>
<path fill-rule="evenodd"  stroke="rgb(38, 30, 68)" stroke-width="2px" stroke-linecap="butt" stroke-linejoin="miter" fill="none"
 d="M33.637,85.000 L33.637,84.000 L73.363,84.000 L73.363,85.000 L33.637,85.000 Z"/>
<path fill-rule="evenodd"  stroke="rgb(38, 30, 68)" stroke-width="2px" stroke-linecap="butt" stroke-linejoin="miter" fill="none"
 d="M41.048,77.000 L41.048,76.000 L64.952,76.000 L64.952,77.000 L41.048,77.000 Z"/>
<path fill-rule="evenodd"  stroke="rgb(38, 30, 68)" stroke-width="2px" stroke-linecap="butt" stroke-linejoin="miter" fill="none"
 d="M40.495,67.000 L40.495,66.000 L52.505,66.000 L52.505,67.000 L40.495,67.000 Z"/>
<path fill-rule="evenodd"  stroke="rgb(38, 30, 68)" stroke-width="4px" stroke-linecap="butt" stroke-linejoin="miter" fill="none"
 d="M67.000,4.906 C101.293,4.906 129.094,32.707 129.094,67.000 C129.094,101.293 101.293,129.094 67.000,129.094 C32.707,129.094 4.906,101.293 4.906,67.000 C4.906,32.707 32.707,4.906 67.000,4.906 Z"/>
<path fill-rule="evenodd"  stroke="rgb(38, 30, 68)" stroke-width="4px" stroke-linecap="butt" stroke-linejoin="miter" fill="none"
 d="M130.020,68.000 L130.020,67.000 L360.980,67.000 L360.980,68.000 L130.020,68.000 Z"/>
</svg>
