<svg
 xmlns="http://www.w3.org/2000/svg"
 xmlns:xlink="http://www.w3.org/1999/xlink"
 width="367px" height="136px">
<path fill-rule="evenodd"  stroke="rgb(38, 30, 68)" stroke-width="3px" stroke-linecap="butt" stroke-linejoin="miter" fill="none"
 d="M83.512,100.915 L78.431,91.651 L84.922,89.059 L68.272,78.686 L68.466,98.560 L73.957,94.235 L79.037,103.499 L83.512,100.915 Z"/>
<path fill-rule="evenodd"  stroke="rgb(38, 30, 68)" stroke-width="3px" stroke-linecap="butt" stroke-linejoin="miter" fill="none"
 d="M42.000,61.000 L42.000,60.000 L76.000,60.000 L76.000,61.000 L42.000,61.000 Z"/>
<path fill-rule="evenodd"  stroke="rgb(38, 30, 68)" stroke-width="3px" stroke-linecap="butt" stroke-linejoin="miter" fill="none"
 d="M42.000,41.000 L42.000,40.000 L76.000,40.000 L76.000,41.000 L42.000,41.000 Z"/>
<path fill-rule="evenodd"  stroke="rgb(38, 30, 68)" stroke-width="3px" stroke-linecap="butt" stroke-linejoin="miter" fill="none"
 d="M42.000,51.000 L42.000,50.000 L76.000,50.000 L76.000,51.000 L42.000,51.000 Z"/>
<path fill-rule="evenodd"  stroke="rgb(38, 30, 68)" stroke-width="4px" stroke-linecap="butt" stroke-linejoin="miter" fill="none"
 d="M67.000,4.906 C101.293,4.906 129.094,32.707 129.094,67.000 C129.094,101.293 101.293,129.094 67.000,129.094 C32.707,129.094 4.906,101.293 4.906,67.000 C4.906,32.707 32.707,4.906 67.000,4.906 Z"/>
<path fill-rule="evenodd"  stroke="rgb(38, 30, 68)" stroke-width="4px" stroke-linecap="butt" stroke-linejoin="miter" fill="none"
 d="M130.020,68.000 L130.020,67.000 L360.980,67.000 L360.980,68.000 L130.020,68.000 Z"/>
</svg>
