<svg xmlns="http://www.w3.org/2000/svg" width="164" height="48">
  <path fill-rule="evenodd" fill="#FFF" d="M27.69 15.607c7.404 0 13.405 5.972 13.405 13.339 0 7.368-6.001 13.34-13.405 13.34-7.404 0-13.405-5.972-13.405-13.34 0-7.367 6.001-13.339 13.405-13.339Z"/>
  <path fill-rule="evenodd" fill="#006" d="M35.58 19.818c-.14-.152-.374-.303-.702-.455a7.94 7.94 0 0 0-1.153-.413c-.44-.124-.936-.223-1.488-.299a12.509 12.509 0 0 0-1.708-.114c-1.313 0-2.487.176-3.52.527-1.035.351-1.915.84-2.641 1.466a6.287 6.287 0 0 0-1.656 2.2 6.578 6.578 0 0 0-.565 2.726c0 .895.171 1.638.513 2.23a5.039 5.039 0 0 0 1.289 1.487c.517.4 1.079.737 1.687 1.012.608.276 1.17.544 1.687.806a6.11 6.11 0 0 1 1.289.846c.342.303.513.696.513 1.178 0 .344-.066.668-.199.97a2.207 2.207 0 0 1-.618.806 3 3 0 0 1-1.059.547c-.426.131-.925.196-1.498.196-.824 0-1.512-.086-2.064-.258a8.26 8.26 0 0 1-2.316-1.105c-.237-.165-.454-.248-.649-.248-.112 0-.217.059-.315.176a1.925 1.925 0 0 0-.272.464 4.616 4.616 0 0 0-.22.641c-.063.234-.119.468-.168.702a6.665 6.665 0 0 0-.105.64 4.535 4.535 0 0 0-.031.475c0 .193.024.351.073.475.049.124.129.241.241.351.168.152.419.317.755.496.335.179.744.337 1.226.475.482.137 1.026.254 1.634.351.608.096 1.247.145 1.918.145 1.397 0 2.651-.183 3.761-.548 1.111-.364 2.054-.87 2.829-1.518a6.458 6.458 0 0 0 1.771-2.302 6.912 6.912 0 0 0 .608-2.902c0-.895-.175-1.638-.524-2.231a5.31 5.31 0 0 0-1.32-1.507 8.373 8.373 0 0 0-1.719-1.033 69.673 69.673 0 0 1-1.718-.795 6.677 6.677 0 0 1-1.331-.816c-.356-.289-.534-.647-.534-1.074a2.18 2.18 0 0 1 .775-1.683c.252-.213.569-.382.954-.506.384-.124.82-.186 1.31-.186.628 0 1.176.062 1.645.186a7.92 7.92 0 0 1 1.226.424c.349.158.646.303.89.433.244.131.458.197.639.197.168 0 .318-.121.451-.362s.248-.526.346-.857c.097-.33.171-.657.22-.981.049-.323.073-.568.073-.733 0-.33-.077-.564-.23-.702Z"/>
  <path fill-rule="evenodd" fill="#FFF" d="M152.686 9.393c-.85 0-1.539-.68-1.539-1.518s.689-1.518 1.539-1.518 1.54.68 1.54 1.518a1.53 1.53 0 0 1-1.54 1.518ZM146.368 9.393a1.52 1.52 0 0 1-1.521-1.518 1.52 1.52 0 0 1 1.521-1.518c.841 0 1.522.68 1.522 1.518a1.52 1.52 0 0 1-1.522 1.518ZM11.102 6.357h72.05c.733 0 1.328.595 1.328 1.328v.38c0 .733-.595 1.328-1.328 1.328h-72.05a1.329 1.329 0 0 1-1.328-1.328v-.38c0-.733.595-1.328 1.328-1.328ZM130.328 36h17.344c.734 0 1.328.594 1.328 1.328v.344c0 .734-.594 1.328-1.328 1.328h-17.344A1.327 1.327 0 0 1 129 37.672v-.344c0-.734.594-1.328 1.328-1.328Z"/>
  <text font-family="Myriad Pro" transform="matrix(.09 0 0 .08955 44.32 38.194)" font-size="280"><tspan font-family="Calibri" font-weight="bold" font-style="italic" fill="#FFF">ite 38</tspan></text>
  <path fill="none" d="M0 0h164v48H0V0Z"/>
</svg>
