<svg
 xmlns="http://www.w3.org/2000/svg"
 xmlns:xlink="http://www.w3.org/1999/xlink"
 width="49.5px" height="50.5px">
<path fill-rule="evenodd"  stroke="rgb(213, 32, 39)" stroke-width="3px" stroke-linecap="butt" stroke-linejoin="miter" fill="none"
 d="M28.073,41.837 L32.974,39.843 L35.932,42.444 L41.560,36.864 L38.981,33.857 L40.958,29.028 L44.999,28.381 L44.999,21.464 L40.935,20.880 L38.858,15.951 L41.315,12.645 L36.382,7.754 L33.072,10.247 L28.067,8.211 L27.500,3.500 L20.500,3.500 L19.894,8.235 L15.115,10.168 L11.962,7.515 L6.334,13.095 L9.054,16.148 L7.128,20.856 L2.995,21.464 L2.995,28.381 L6.855,28.946 L9.500,34.500 L6.681,37.205 L11.613,42.096 L14.500,39.500 L19.879,41.840 L20.500,45.650 L27.500,45.650 L28.073,41.837 Z"/>
<path fill-rule="evenodd"  stroke="rgb(213, 32, 39)" stroke-width="3px" stroke-linecap="butt" stroke-linejoin="miter" fill="none"
 d="M24.500,15.500 C29.471,15.500 33.500,19.529 33.500,24.500 C33.500,29.471 29.471,33.500 24.500,33.500 C19.529,33.500 15.500,29.471 15.500,24.500 C15.500,19.529 19.529,15.500 24.500,15.500 Z"/>
</svg>
