<svg xmlns="http://www.w3.org/2000/svg" width="24px" height="20px">
              <path fill-rule="evenodd" stroke="rgb(255, 255, 255)" stroke-width="0px" stroke-linecap="butt"
                stroke-linejoin="miter" fill="currentColor"
                d="M12.000,20.000 C5.373,20.000 -0.000,15.523 -0.000,10.000 C-0.000,4.477 5.373,0.000 12.000,0.000 C18.627,0.000 24.000,4.477 24.000,10.000 C24.000,15.523 18.627,20.000 12.000,20.000 ZM17.000,9.000 L13.000,8.955 L13.000,3.000 C13.000,3.000 12.534,2.000 12.052,2.000 C11.535,2.000 11.000,3.000 11.000,3.000 L11.000,11.000 L13.000,11.000 L17.000,10.991 C17.000,10.991 18.000,10.464 18.000,9.952 C18.000,9.469 17.000,9.000 17.000,9.000 Z" />
            </svg>
