<svg xmlns="http://www.w3.org/2000/svg" width="1420" height="100" fill="none">
  <path d="M0 29.148c0 5.27 1.263 10.156 3.788 14.657 2.635 4.392 6.203 7.905 10.704 10.54 4.501 2.635 9.551 3.952 15.15 3.952 5.71 0 10.76-1.317 15.151-3.952 4.502-2.635 8.015-6.148 10.54-10.54 2.525-4.501 3.787-9.387 3.787-14.657 0-5.489-1.262-10.43-3.787-14.82-2.525-4.392-6.038-7.85-10.54-10.376C40.402 1.317 35.352 0 29.643 0c-5.6 0-10.65 1.317-15.151 3.952C9.99 6.477 6.422 9.936 3.788 14.327 1.263 18.72 0 23.66 0 29.148Zm17.785 0c0-2.305.495-4.391 1.483-6.257.988-1.867 2.36-3.349 4.117-4.447 1.756-1.207 3.842-1.811 6.258-1.811 2.415 0 4.446.604 6.093 1.811 1.756 1.098 3.129 2.58 4.117 4.447.988 1.866 1.482 3.952 1.482 6.258 0 2.195-.494 4.281-1.482 6.257-.988 1.867-2.36 3.349-4.117 4.447-1.647 1.098-3.678 1.647-6.093 1.647-2.416 0-4.502-.55-6.258-1.647-1.757-1.098-3.13-2.58-4.117-4.447a13.811 13.811 0 0 1-1.483-6.258Zm57.145 62.25c0 5.38 1.262 10.265 3.787 14.656 2.635 4.392 6.203 7.905 10.705 10.54 4.501 2.635 9.551 3.952 15.15 3.952 5.709 0 10.759-1.317 15.151-3.952 4.501-2.635 8.014-6.148 10.54-10.54 2.525-4.391 3.787-9.277 3.787-14.656 0-5.38-1.262-10.265-3.787-14.657-2.526-4.501-6.039-8.014-10.54-10.54-4.392-2.634-9.442-3.952-15.151-3.952-5.599 0-10.649 1.318-15.15 3.953-4.502 2.525-8.07 6.038-10.705 10.54-2.525 4.39-3.787 9.276-3.787 14.656Zm17.785 0c0-2.306.494-4.392 1.483-6.258.988-1.866 2.36-3.349 4.117-4.446 1.756-1.098 3.842-1.647 6.257-1.647 2.416 0 4.447.549 6.094 1.647 1.756 1.097 3.128 2.58 4.117 4.446.988 1.866 1.482 3.952 1.482 6.258 0 2.196-.494 4.282-1.482 6.258-.989 1.866-2.361 3.348-4.117 4.446-1.647 1.098-3.678 1.647-6.094 1.647-2.415 0-4.501-.549-6.258-1.647-1.756-1.098-3.128-2.58-4.116-4.446a13.811 13.811 0 0 1-1.483-6.258Zm5.6-88.763L14.326 117.91H35.9L119.888 2.635H98.314ZM142.809 29.148c0 5.27 1.263 10.156 3.788 14.657 2.635 4.392 6.203 7.905 10.704 10.54 4.501 2.635 9.552 3.952 15.151 3.952 5.709 0 10.759-1.317 15.15-3.952 4.502-2.635 8.015-6.148 10.54-10.54 2.525-4.501 3.788-9.387 3.788-14.657 0-5.489-1.263-10.43-3.788-14.82-2.525-4.392-6.038-7.85-10.54-10.376C183.211 1.317 178.161 0 172.452 0c-5.599 0-10.65 1.317-15.151 3.952-4.501 2.525-8.069 5.984-10.704 10.375-2.525 4.392-3.788 9.332-3.788 14.821Zm17.786 0c0-2.305.494-4.391 1.482-6.257.988-1.867 2.36-3.349 4.117-4.447 1.756-1.207 3.842-1.811 6.258-1.811 2.415 0 4.446.604 6.093 1.811 1.757 1.098 3.129 2.58 4.117 4.447.988 1.866 1.482 3.952 1.482 6.258 0 2.195-.494 4.281-1.482 6.257-.988 1.867-2.36 3.349-4.117 4.447-1.647 1.098-3.678 1.647-6.093 1.647-2.416 0-4.502-.55-6.258-1.647-1.757-1.098-3.129-2.58-4.117-4.447a13.812 13.812 0 0 1-1.482-6.258Zm57.144 62.25c0 5.38 1.263 10.265 3.788 14.656 2.634 4.392 6.203 7.905 10.704 10.54 4.501 2.635 9.551 3.952 15.151 3.952 5.708 0 10.759-1.317 15.15-3.952 4.501-2.635 8.015-6.148 10.54-10.54 2.525-4.391 3.787-9.277 3.787-14.656 0-5.38-1.262-10.265-3.787-14.657-2.525-4.501-6.039-8.014-10.54-10.54-4.391-2.634-9.442-3.952-15.15-3.952-5.6 0-10.65 1.318-15.151 3.953-4.501 2.525-8.07 6.038-10.704 10.54-2.525 4.39-3.788 9.276-3.788 14.656Zm17.785 0c0-2.306.495-4.392 1.483-6.258.988-1.866 2.36-3.349 4.117-4.446 1.756-1.098 3.842-1.647 6.258-1.647 2.415 0 4.446.549 6.093 1.647 1.756 1.097 3.129 2.58 4.117 4.446.988 1.866 1.482 3.952 1.482 6.258 0 2.196-.494 4.282-1.482 6.258-.988 1.866-2.361 3.348-4.117 4.446-1.647 1.098-3.678 1.647-6.093 1.647-2.416 0-4.502-.549-6.258-1.647-1.757-1.098-3.129-2.58-4.117-4.446a13.813 13.813 0 0 1-1.483-6.258Zm5.6-88.763L157.136 117.91h21.574L262.697 2.635h-21.573ZM285.618 29.148c0 5.27 1.263 10.156 3.788 14.657 2.635 4.392 6.203 7.905 10.704 10.54 4.502 2.635 9.552 3.952 15.151 3.952 5.709 0 10.759-1.317 15.151-3.952 4.501-2.635 8.014-6.148 10.539-10.54 2.525-4.501 3.788-9.387 3.788-14.657 0-5.489-1.263-10.43-3.788-14.82-2.525-4.392-6.038-7.85-10.539-10.376C326.02 1.317 320.97 0 315.261 0c-5.599 0-10.649 1.317-15.151 3.952-4.501 2.525-8.069 5.984-10.704 10.375-2.525 4.392-3.788 9.332-3.788 14.821Zm17.786 0c0-2.305.494-4.391 1.482-6.257.988-1.867 2.36-3.349 4.117-4.447 1.757-1.207 3.843-1.811 6.258-1.811s4.446.604 6.093 1.811c1.757 1.098 3.129 2.58 4.117 4.447.988 1.866 1.482 3.952 1.482 6.258 0 2.195-.494 4.281-1.482 6.257-.988 1.867-2.36 3.349-4.117 4.447-1.647 1.098-3.678 1.647-6.093 1.647s-4.501-.55-6.258-1.647c-1.757-1.098-3.129-2.58-4.117-4.447a13.812 13.812 0 0 1-1.482-6.258Zm57.144 62.25c0 5.38 1.263 10.265 3.788 14.656 2.635 4.392 6.203 7.905 10.704 10.54 4.501 2.635 9.552 3.952 15.151 3.952 5.709 0 10.759-1.317 15.15-3.952 4.502-2.635 8.015-6.148 10.54-10.54 2.525-4.391 3.788-9.277 3.788-14.656 0-5.38-1.263-10.265-3.788-14.657-2.525-4.501-6.038-8.014-10.54-10.54-4.391-2.634-9.441-3.952-15.15-3.952-5.599 0-10.65 1.318-15.151 3.953-4.501 2.525-8.069 6.038-10.704 10.54-2.525 4.39-3.788 9.276-3.788 14.656Zm17.786 0c0-2.306.494-4.392 1.482-6.258.988-1.866 2.36-3.349 4.117-4.446 1.756-1.098 3.842-1.647 6.258-1.647 2.415 0 4.446.549 6.093 1.647 1.756 1.097 3.129 2.58 4.117 4.446.988 1.866 1.482 3.952 1.482 6.258 0 2.196-.494 4.282-1.482 6.258-.988 1.866-2.361 3.348-4.117 4.446-1.647 1.098-3.678 1.647-6.093 1.647-2.416 0-4.502-.549-6.258-1.647-1.757-1.098-3.129-2.58-4.117-4.446a13.812 13.812 0 0 1-1.482-6.258Zm5.599-88.763L299.946 117.91h21.573L405.506 2.635h-21.573ZM428.428 29.148c0 5.27 1.262 10.156 3.787 14.657 2.635 4.392 6.203 7.905 10.704 10.54 4.502 2.635 9.552 3.952 15.151 3.952 5.709 0 10.759-1.317 15.151-3.952 4.501-2.635 8.014-6.148 10.539-10.54 2.525-4.501 3.788-9.387 3.788-14.657 0-5.489-1.263-10.43-3.788-14.82-2.525-4.392-6.038-7.85-10.539-10.376C468.829 1.317 463.779 0 458.07 0c-5.599 0-10.649 1.317-15.151 3.952-4.501 2.525-8.069 5.984-10.704 10.375-2.525 4.392-3.787 9.332-3.787 14.821Zm17.785 0c0-2.305.494-4.391 1.482-6.257.988-1.867 2.361-3.349 4.117-4.447 1.757-1.207 3.843-1.811 6.258-1.811s4.446.604 6.093 1.811c1.757 1.098 3.129 2.58 4.117 4.447.988 1.866 1.482 3.952 1.482 6.258 0 2.195-.494 4.281-1.482 6.257-.988 1.867-2.36 3.349-4.117 4.447-1.647 1.098-3.678 1.647-6.093 1.647s-4.501-.55-6.258-1.647c-1.756-1.098-3.129-2.58-4.117-4.447a13.812 13.812 0 0 1-1.482-6.258Zm57.144 62.25c0 5.38 1.263 10.265 3.788 14.656 2.635 4.392 6.203 7.905 10.704 10.54 4.502 2.635 9.552 3.952 15.151 3.952 5.709 0 10.759-1.317 15.151-3.952 4.501-2.635 8.014-6.148 10.539-10.54 2.525-4.391 3.788-9.277 3.788-14.656 0-5.38-1.263-10.265-3.788-14.657-2.525-4.501-6.038-8.014-10.539-10.54-4.392-2.634-9.442-3.952-15.151-3.952-5.599 0-10.649 1.318-15.151 3.953-4.501 2.525-8.069 6.038-10.704 10.54-2.525 4.39-3.788 9.276-3.788 14.656Zm17.786 0c0-2.306.494-4.392 1.482-6.258.988-1.866 2.36-3.349 4.117-4.446 1.757-1.098 3.843-1.647 6.258-1.647s4.446.549 6.093 1.647c1.757 1.097 3.129 2.58 4.117 4.446.988 1.866 1.482 3.952 1.482 6.258 0 2.196-.494 4.282-1.482 6.258-.988 1.866-2.36 3.348-4.117 4.446-1.647 1.098-3.678 1.647-6.093 1.647s-4.501-.549-6.258-1.647c-1.757-1.098-3.129-2.58-4.117-4.446a13.812 13.812 0 0 1-1.482-6.258Zm5.599-88.763L442.755 117.91h21.573L548.315 2.635h-21.573ZM571.237 29.148c0 5.27 1.262 10.156 3.787 14.657 2.635 4.392 6.203 7.905 10.705 10.54 4.501 2.635 9.551 3.952 15.15 3.952 5.709 0 10.759-1.317 15.151-3.952 4.501-2.635 8.014-6.148 10.539-10.54 2.526-4.501 3.788-9.387 3.788-14.657 0-5.489-1.262-10.43-3.788-14.82-2.525-4.392-6.038-7.85-10.539-10.376C611.638 1.317 606.588 0 600.879 0c-5.599 0-10.649 1.317-15.15 3.952-4.502 2.525-8.07 5.984-10.705 10.375-2.525 4.392-3.787 9.332-3.787 14.821Zm17.785 0c0-2.305.494-4.391 1.482-6.257.988-1.867 2.361-3.349 4.117-4.447 1.757-1.207 3.843-1.811 6.258-1.811 2.416 0 4.447.604 6.093 1.811 1.757 1.098 3.129 2.58 4.117 4.447.989 1.866 1.483 3.952 1.483 6.258a13.8 13.8 0 0 1-1.483 6.257c-.988 1.867-2.36 3.349-4.117 4.447-1.646 1.098-3.677 1.647-6.093 1.647-2.415 0-4.501-.55-6.258-1.647-1.756-1.098-3.129-2.58-4.117-4.447a13.812 13.812 0 0 1-1.482-6.258Zm57.145 62.25c0 5.38 1.262 10.265 3.787 14.656 2.635 4.392 6.203 7.905 10.704 10.54 4.502 2.635 9.552 3.952 15.151 3.952 5.709 0 10.759-1.317 15.151-3.952 4.501-2.635 8.014-6.148 10.539-10.54 2.525-4.391 3.788-9.277 3.788-14.656 0-5.38-1.263-10.265-3.788-14.657-2.525-4.501-6.038-8.014-10.539-10.54-4.392-2.634-9.442-3.952-15.151-3.952-5.599 0-10.649 1.318-15.151 3.953-4.501 2.525-8.069 6.038-10.704 10.54-2.525 4.39-3.787 9.276-3.787 14.656Zm17.785 0c0-2.306.494-4.392 1.482-6.258.988-1.866 2.361-3.349 4.117-4.446 1.757-1.098 3.843-1.647 6.258-1.647s4.446.549 6.093 1.647c1.757 1.097 3.129 2.58 4.117 4.446.988 1.866 1.482 3.952 1.482 6.258 0 2.196-.494 4.282-1.482 6.258-.988 1.866-2.36 3.348-4.117 4.446-1.647 1.098-3.678 1.647-6.093 1.647s-4.501-.549-6.258-1.647c-1.756-1.098-3.129-2.58-4.117-4.446a13.812 13.812 0 0 1-1.482-6.258Zm5.599-88.763L585.564 117.91h21.573L691.124 2.635h-21.573ZM714.046 29.148c0 5.27 1.262 10.156 3.788 14.657 2.634 4.392 6.203 7.905 10.704 10.54 4.501 2.635 9.551 3.952 15.15 3.952 5.709 0 10.76-1.317 15.151-3.952 4.501-2.635 8.015-6.148 10.54-10.54 2.525-4.501 3.787-9.387 3.787-14.657 0-5.489-1.262-10.43-3.787-14.82-2.525-4.392-6.039-7.85-10.54-10.376C754.448 1.317 749.397 0 743.688 0c-5.599 0-10.649 1.317-15.15 3.952-4.501 2.525-8.07 5.984-10.704 10.375-2.526 4.392-3.788 9.332-3.788 14.821Zm17.785 0c0-2.305.495-4.391 1.483-6.257.988-1.867 2.36-3.349 4.117-4.447 1.756-1.207 3.842-1.811 6.257-1.811 2.416 0 4.447.604 6.094 1.811 1.756 1.098 3.129 2.58 4.117 4.447.988 1.866 1.482 3.952 1.482 6.258 0 2.195-.494 4.281-1.482 6.257-.988 1.867-2.361 3.349-4.117 4.447-1.647 1.098-3.678 1.647-6.094 1.647-2.415 0-4.501-.55-6.257-1.647-1.757-1.098-3.129-2.58-4.117-4.447a13.813 13.813 0 0 1-1.483-6.258Zm57.145 62.25c0 5.38 1.262 10.265 3.787 14.656 2.635 4.392 6.203 7.905 10.705 10.54 4.501 2.635 9.551 3.952 15.15 3.952 5.709 0 10.759-1.317 15.151-3.952 4.501-2.635 8.014-6.148 10.539-10.54 2.526-4.391 3.788-9.277 3.788-14.656 0-5.38-1.262-10.265-3.788-14.657-2.525-4.501-6.038-8.014-10.539-10.54-4.392-2.634-9.442-3.952-15.151-3.952-5.599 0-10.649 1.318-15.15 3.953-4.502 2.525-8.07 6.038-10.705 10.54-2.525 4.39-3.787 9.276-3.787 14.656Zm17.785 0c0-2.306.494-4.392 1.482-6.258.988-1.866 2.361-3.349 4.117-4.446 1.757-1.098 3.843-1.647 6.258-1.647 2.416 0 4.447.549 6.093 1.647 1.757 1.097 3.129 2.58 4.117 4.446.989 1.866 1.483 3.952 1.483 6.258a13.8 13.8 0 0 1-1.483 6.258c-.988 1.866-2.36 3.348-4.117 4.446-1.646 1.098-3.677 1.647-6.093 1.647-2.415 0-4.501-.549-6.258-1.647-1.756-1.098-3.129-2.58-4.117-4.446a13.812 13.812 0 0 1-1.482-6.258Zm5.599-88.763L728.373 117.91h21.573L833.934 2.635H812.36ZM856.855 29.148c0 5.27 1.263 10.156 3.788 14.657 2.635 4.392 6.203 7.905 10.704 10.54 4.501 2.635 9.551 3.952 15.151 3.952 5.709 0 10.759-1.317 15.15-3.952 4.502-2.635 8.015-6.148 10.54-10.54 2.525-4.501 3.787-9.387 3.787-14.657 0-5.489-1.262-10.43-3.787-14.82-2.525-4.392-6.038-7.85-10.54-10.376C897.257 1.317 892.207 0 886.498 0c-5.6 0-10.65 1.317-15.151 3.952-4.501 2.525-8.069 5.984-10.704 10.375-2.525 4.392-3.788 9.332-3.788 14.821Zm17.786 0c0-2.305.494-4.391 1.482-6.257.988-1.867 2.36-3.349 4.117-4.447 1.756-1.207 3.842-1.811 6.258-1.811 2.415 0 4.446.604 6.093 1.811 1.756 1.098 3.129 2.58 4.117 4.447.988 1.866 1.482 3.952 1.482 6.258 0 2.195-.494 4.281-1.482 6.257-.988 1.867-2.361 3.349-4.117 4.447-1.647 1.098-3.678 1.647-6.093 1.647-2.416 0-4.502-.55-6.258-1.647-1.757-1.098-3.129-2.58-4.117-4.447a13.812 13.812 0 0 1-1.482-6.258Zm57.144 62.25c0 5.38 1.262 10.265 3.788 14.656 2.634 4.392 6.203 7.905 10.704 10.54 4.501 2.635 9.551 3.952 15.15 3.952 5.709 0 10.76-1.317 15.151-3.952 4.501-2.635 8.015-6.148 10.54-10.54 2.525-4.391 3.787-9.277 3.787-14.656 0-5.38-1.262-10.265-3.787-14.657-2.525-4.501-6.039-8.014-10.54-10.54-4.391-2.634-9.442-3.952-15.151-3.952-5.599 0-10.649 1.318-15.15 3.953-4.501 2.525-8.07 6.038-10.704 10.54-2.526 4.39-3.788 9.276-3.788 14.656Zm17.785 0c0-2.306.494-4.392 1.482-6.258.989-1.866 2.361-3.349 4.118-4.446 1.756-1.098 3.842-1.647 6.257-1.647 2.416 0 4.447.549 6.094 1.647 1.756 1.097 3.129 2.58 4.117 4.446.988 1.866 1.482 3.952 1.482 6.258 0 2.196-.494 4.282-1.482 6.258-.988 1.866-2.361 3.348-4.117 4.446-1.647 1.098-3.678 1.647-6.094 1.647-2.415 0-4.501-.549-6.257-1.647-1.757-1.098-3.129-2.58-4.118-4.446a13.812 13.812 0 0 1-1.482-6.258Zm5.6-88.763L871.182 117.91h21.573L976.743 2.635H955.17ZM999.664 29.148c0 5.27 1.266 10.156 3.786 14.657 2.64 4.392 6.2 7.905 10.71 10.54 4.5 2.635 9.55 3.952 15.15 3.952 5.71 0 10.76-1.317 15.15-3.952 4.5-2.635 8.01-6.148 10.54-10.54 2.52-4.501 3.78-9.387 3.78-14.657 0-5.489-1.26-10.43-3.78-14.82-2.53-4.392-6.04-7.85-10.54-10.376-4.39-2.635-9.44-3.952-15.15-3.952-5.6 0-10.65 1.317-15.15 3.952-4.51 2.525-8.07 5.984-10.71 10.375-2.52 4.392-3.786 9.332-3.786 14.821Zm17.786 0c0-2.305.49-4.391 1.48-6.257.99-1.867 2.36-3.349 4.12-4.447 1.76-1.207 3.84-1.811 6.26-1.811 2.41 0 4.44.604 6.09 1.811 1.76 1.098 3.13 2.58 4.12 4.447.99 1.866 1.48 3.952 1.48 6.258 0 2.195-.49 4.281-1.48 6.257-.99 1.867-2.36 3.349-4.12 4.447-1.65 1.098-3.68 1.647-6.09 1.647-2.42 0-4.5-.55-6.26-1.647-1.76-1.098-3.13-2.58-4.12-4.447a13.784 13.784 0 0 1-1.48-6.258Zm57.14 62.25c0 5.38 1.27 10.265 3.79 14.656 2.64 4.392 6.2 7.905 10.71 10.54 4.5 2.635 9.55 3.952 15.15 3.952 5.71 0 10.76-1.317 15.15-3.952 4.5-2.635 8.01-6.148 10.54-10.54 2.52-4.391 3.78-9.277 3.78-14.656 0-5.38-1.26-10.265-3.78-14.657-2.53-4.501-6.04-8.014-10.54-10.54-4.39-2.634-9.44-3.952-15.15-3.952-5.6 0-10.65 1.318-15.15 3.953-4.51 2.525-8.07 6.038-10.71 10.54-2.52 4.39-3.79 9.276-3.79 14.656Zm17.79 0c0-2.306.49-4.392 1.48-6.258.99-1.866 2.36-3.349 4.12-4.446 1.76-1.098 3.84-1.647 6.26-1.647 2.41 0 4.44.549 6.09 1.647 1.76 1.097 3.13 2.58 4.12 4.446.98 1.866 1.48 3.952 1.48 6.258 0 2.196-.5 4.282-1.48 6.258-.99 1.866-2.36 3.348-4.12 4.446-1.65 1.098-3.68 1.647-6.09 1.647-2.42 0-4.5-.549-6.26-1.647-1.76-1.098-3.13-2.58-4.12-4.446a13.784 13.784 0 0 1-1.48-6.258Zm5.6-88.763-83.99 115.276h21.57l83.99-115.276h-21.57ZM1142.47 29.148c0 5.27 1.27 10.156 3.79 14.657 2.64 4.392 6.2 7.905 10.71 10.54 4.5 2.635 9.55 3.952 15.15 3.952 5.7 0 10.76-1.317 15.15-3.952 4.5-2.635 8.01-6.148 10.54-10.54 2.52-4.501 3.78-9.387 3.78-14.657 0-5.489-1.26-10.43-3.78-14.82-2.53-4.392-6.04-7.85-10.54-10.376-4.39-2.635-9.45-3.952-15.15-3.952-5.6 0-10.65 1.317-15.15 3.952-4.51 2.525-8.07 5.984-10.71 10.375-2.52 4.392-3.79 9.332-3.79 14.821Zm17.79 0c0-2.305.49-4.391 1.48-6.257.99-1.867 2.36-3.349 4.12-4.447 1.75-1.207 3.84-1.811 6.26-1.811 2.41 0 4.44.604 6.09 1.811 1.76 1.098 3.13 2.58 4.12 4.447.98 1.866 1.48 3.952 1.48 6.258 0 2.195-.5 4.281-1.48 6.257-.99 1.867-2.36 3.349-4.12 4.447-1.65 1.098-3.68 1.647-6.09 1.647-2.42 0-4.51-.55-6.26-1.647-1.76-1.098-3.13-2.58-4.12-4.447a13.784 13.784 0 0 1-1.48-6.258Zm57.14 62.25c0 5.38 1.27 10.265 3.79 14.656 2.64 4.392 6.2 7.905 10.71 10.54 4.5 2.635 9.55 3.952 15.15 3.952 5.7 0 10.75-1.317 15.15-3.952 4.5-2.635 8.01-6.148 10.54-10.54 2.52-4.391 3.78-9.277 3.78-14.656 0-5.38-1.26-10.265-3.78-14.657-2.53-4.501-6.04-8.014-10.54-10.54-4.4-2.634-9.45-3.952-15.15-3.952-5.6 0-10.65 1.318-15.15 3.953-4.51 2.525-8.07 6.038-10.71 10.54-2.52 4.39-3.79 9.276-3.79 14.656Zm17.79 0c0-2.306.49-4.392 1.48-6.258.99-1.866 2.36-3.349 4.12-4.446 1.75-1.098 3.84-1.647 6.26-1.647 2.41 0 4.44.549 6.09 1.647 1.76 1.097 3.13 2.58 4.12 4.446.98 1.866 1.48 3.952 1.48 6.258 0 2.196-.5 4.282-1.48 6.258-.99 1.866-2.36 3.348-4.12 4.446-1.65 1.098-3.68 1.647-6.09 1.647-2.42 0-4.51-.549-6.26-1.647-1.76-1.098-3.13-2.58-4.12-4.446a13.784 13.784 0 0 1-1.48-6.258Zm5.6-88.763L1156.8 117.91h21.57l83.99-115.276h-21.57ZM1285.28 29.148c0 5.27 1.27 10.156 3.79 14.657 2.64 4.392 6.2 7.905 10.7 10.54 4.51 2.635 9.56 3.952 15.16 3.952 5.7 0 10.75-1.317 15.15-3.952 4.5-2.635 8.01-6.148 10.54-10.54 2.52-4.501 3.78-9.387 3.78-14.657 0-5.489-1.26-10.43-3.78-14.82-2.53-4.392-6.04-7.85-10.54-10.376-4.4-2.635-9.45-3.952-15.15-3.952-5.6 0-10.65 1.317-15.16 3.952-4.5 2.525-8.06 5.984-10.7 10.375-2.52 4.392-3.79 9.332-3.79 14.821Zm17.79 0c0-2.305.49-4.391 1.48-6.257.99-1.867 2.36-3.349 4.12-4.447 1.75-1.207 3.84-1.811 6.26-1.811 2.41 0 4.44.604 6.09 1.811a11.545 11.545 0 0 1 4.12 4.447c.98 1.866 1.48 3.952 1.48 6.258 0 2.195-.5 4.281-1.48 6.257a11.545 11.545 0 0 1-4.12 4.447c-1.65 1.098-3.68 1.647-6.09 1.647-2.42 0-4.51-.55-6.26-1.647-1.76-1.098-3.13-2.58-4.12-4.447a13.784 13.784 0 0 1-1.48-6.258Zm57.14 62.25c0 5.38 1.26 10.265 3.79 14.656 2.63 4.392 6.2 7.905 10.7 10.54 4.51 2.635 9.56 3.952 15.15 3.952 5.71 0 10.76-1.317 15.16-3.952 4.5-2.635 8.01-6.148 10.54-10.54 2.52-4.391 3.78-9.277 3.78-14.656 0-5.38-1.26-10.265-3.78-14.657-2.53-4.501-6.04-8.014-10.54-10.54-4.4-2.634-9.45-3.952-15.16-3.952-5.59 0-10.64 1.318-15.15 3.953-4.5 2.525-8.07 6.038-10.7 10.54-2.53 4.39-3.79 9.276-3.79 14.656Zm17.79 0c0-2.306.49-4.392 1.48-6.258.99-1.866 2.36-3.349 4.12-4.446 1.75-1.098 3.84-1.647 6.25-1.647 2.42 0 4.45.549 6.1 1.647a11.545 11.545 0 0 1 4.12 4.446c.98 1.866 1.48 3.952 1.48 6.258 0 2.196-.5 4.282-1.48 6.258a11.546 11.546 0 0 1-4.12 4.446c-1.65 1.098-3.68 1.647-6.1 1.647-2.41 0-4.5-.549-6.25-1.647-1.76-1.098-3.13-2.58-4.12-4.446a13.784 13.784 0 0 1-1.48-6.258Zm5.6-88.763-83.99 115.276h21.57l83.99-115.276h-21.57Z" fill="#fff" fill-opacity=".08"/>
</svg>
