<svg xmlns="http://www.w3.org/2000/svg" width="49.5" height="50.5">
  <path stroke="#D52027" stroke-width="3" fill="none" d="m28.073 41.837 4.901-1.994 2.958 2.601 5.628-5.58-2.579-3.007 1.977-4.829 4.041-.647v-6.917l-4.064-.584-2.077-4.929 2.457-3.306-4.933-4.891-3.31 2.493-5.005-2.036L27.5 3.5h-7l-.606 4.735-4.779 1.933-3.153-2.653-5.628 5.58 2.72 3.053-1.926 4.708-4.133.608v6.917l3.86.565L9.5 34.5l-2.819 2.705 4.932 4.891L14.5 39.5l5.379 2.34.621 3.81h7l.573-3.813Z"/>
  <path stroke="#D52027" stroke-width="3" fill="none" d="M24.5 15.5a9 9 0 0 1 9 9 9 9 0 0 1-9 9 9 9 0 0 1-9-9 9 9 0 0 1 9-9Z"/>
</svg>
