<svg width="64" height="64" viewBox="0 0 24 24" fill="none" xmlns="http://www.w3.org/2000/svg">
  <g stroke="#1C1C1C" stroke-width="1.699" stroke-linecap="round">
    <path d="M6.51 8.467H4.68c-1.011 0-1.83.82-1.83 1.83v3.975c0 .97.385 1.902 1.072 2.588l1.516 1.516a3.66 3.66 0 0 0 2.588 1.072h7.948a3.66 3.66 0 0 0 2.588-1.072l1.516-1.516a3.66 3.66 0 0 0 1.072-2.588v-3.975c0-1.01-.819-1.83-1.83-1.83h-1.83m-10.98 0V5.722c0-1.01.819-1.83 1.83-1.83h7.32c1.01 0 1.83.82 1.83 1.83v2.745m-10.98 0h10.98M10.17 13.043h3.66"/>
  </g>
</svg>
