<svg 
 xmlns="http://www.w3.org/2000/svg"
 xmlns:xlink="http://www.w3.org/1999/xlink"
 width="512px" height="512px">
<path fill-rule="evenodd"  fill="rgb(0, 0, 102)"
 d="M0.000,-0.010 L512.000,-0.010 L512.000,511.990 L0.000,511.990 L0.000,-0.010 Z"/>
<path fill-rule="evenodd"  fill="rgb(246, 232, 159)"
 d="M256.000,134.000 C343.813,134.000 415.000,205.187 415.000,293.000 C415.000,380.813 343.813,452.000 256.000,452.000 C168.187,452.000 97.000,380.813 97.000,293.000 C97.000,205.187 168.187,134.000 256.000,134.000 Z"/>
<path fill-rule="evenodd"  fill="rgb(0, 0, 102)"
 d="M354.128,178.148 C352.385,176.239 349.465,174.331 345.374,172.418 C341.279,170.509 336.490,168.772 331.002,167.209 C325.515,165.647 319.329,164.389 312.449,163.433 C305.566,162.481 298.470,162.000 291.153,162.000 C274.776,162.000 260.143,164.214 247.253,168.642 C234.359,173.069 223.384,179.234 214.328,187.133 C205.268,195.035 198.389,204.281 193.685,214.869 C188.982,225.462 186.630,236.921 186.630,249.247 C186.630,260.536 188.761,269.911 193.032,277.375 C197.298,284.842 202.655,291.092 209.102,296.126 C215.545,301.164 222.560,305.417 230.138,308.888 C237.715,312.363 244.726,315.749 251.173,319.045 C257.616,322.345 262.973,325.906 267.243,329.723 C271.510,333.544 273.645,338.492 273.645,344.568 C273.645,348.910 272.816,352.991 271.163,356.808 C269.505,360.629 266.937,364.015 263.454,366.965 C259.967,369.920 255.570,372.219 250.258,373.867 C244.942,375.519 238.716,376.341 231.575,376.341 C221.294,376.341 212.716,375.259 205.836,373.086 C198.952,370.917 193.162,368.573 188.459,366.054 C183.755,363.539 179.922,361.236 176.961,359.152 C173.997,357.069 171.298,356.027 168.861,356.027 C167.464,356.027 166.158,356.768 164.941,358.241 C163.720,359.718 162.589,361.671 161.544,364.101 C160.499,366.534 159.584,369.224 158.800,372.174 C158.017,375.129 157.318,378.079 156.710,381.029 C156.098,383.983 155.665,386.673 155.403,389.103 C155.142,391.536 155.012,393.530 155.012,395.093 C155.012,397.526 155.314,399.520 155.926,401.083 C156.534,402.646 157.535,404.123 158.931,405.510 C161.022,407.423 164.157,409.506 168.338,411.761 C172.519,414.019 177.615,416.017 183.625,417.751 C189.635,419.484 196.429,420.962 204.007,422.178 C211.585,423.391 219.555,424.001 227.916,424.001 C245.334,424.001 260.972,421.698 274.821,417.100 C288.671,412.501 300.429,406.121 310.098,397.958 C319.766,389.799 327.124,380.118 332.178,368.919 C337.229,357.720 339.756,345.524 339.756,332.327 C339.756,321.043 337.576,311.667 333.223,304.200 C328.867,296.737 323.380,290.397 316.761,285.188 C310.139,279.979 302.997,275.641 295.334,272.166 C287.666,268.695 280.525,265.354 273.907,262.139 C267.284,258.928 261.756,255.498 257.314,251.852 C252.871,248.206 250.650,243.693 250.650,238.309 C250.650,234.142 251.475,230.235 253.133,226.589 C254.786,222.943 257.183,219.777 260.319,217.083 C263.454,214.393 267.415,212.265 272.208,210.702 C276.997,209.140 282.440,208.358 288.540,208.358 C296.379,208.358 303.214,209.140 309.052,210.702 C314.887,212.265 319.983,214.047 324.339,216.041 C328.691,218.039 332.395,219.863 335.445,221.511 C338.490,223.163 341.148,223.985 343.414,223.985 C345.505,223.985 347.375,222.467 349.033,219.427 C350.686,216.391 352.123,212.786 353.344,208.619 C354.561,204.452 355.475,200.330 356.088,196.248 C356.696,192.171 357.003,189.086 357.003,187.003 C357.003,182.836 356.043,179.885 354.128,178.148 L354.128,178.148 Z"/>
<path fill-rule="evenodd"  fill="rgb(246, 232, 159)"
 d="M435.000,74.000 C425.611,74.000 418.000,66.389 418.000,57.000 C418.000,47.611 425.611,40.000 435.000,40.000 C444.389,40.000 452.000,47.611 452.000,57.000 C452.000,66.389 444.389,74.000 435.000,74.000 Z"/>
<path fill-rule="evenodd"  fill="rgb(246, 232, 159)"
 d="M375.000,74.000 C365.611,74.000 358.000,66.389 358.000,57.000 C358.000,47.611 365.611,40.000 375.000,40.000 C384.389,40.000 392.000,47.611 392.000,57.000 C392.000,66.389 384.389,74.000 375.000,74.000 Z"/>
<path fill-rule="evenodd"  fill="rgb(246, 232, 159)"
 d="M73.000,40.000 L277.000,40.000 C284.180,40.000 290.000,45.820 290.000,53.000 L290.000,61.000 C290.000,68.180 284.180,74.000 277.000,74.000 L73.000,74.000 C65.820,74.000 60.000,68.180 60.000,61.000 L60.000,53.000 C60.000,45.820 65.820,40.000 73.000,40.000 Z"/>
</svg>