<svg xmlns="http://www.w3.org/2000/svg" width="512" height="512">
  <path fill-rule="evenodd" fill="#FFF" d="M0 0h512v512H0V0Z"/>
  <path fill-rule="evenodd" fill="#006" d="M0 511.99v-512h512v512H0ZM380.133 40H131.867C123.104 40 116 47.104 116 55.867c0 8.763 7.104 15.866 15.867 15.866h248.266c8.763 0 15.867-7.103 15.867-15.866S388.896 40 380.133 40ZM256 134c-87.813 0-159 71.187-159 159s71.187 159 159 159 159-71.187 159-159-71.187-159-159-159Zm97.344 74.619c-1.221 4.167-2.658 7.772-4.311 10.808-1.658 3.04-3.528 4.558-5.619 4.558-2.266 0-4.924-.822-7.969-2.474-3.05-1.648-6.754-3.472-11.106-5.47-4.356-1.994-9.452-3.776-15.287-5.339-5.838-1.562-12.673-2.344-20.512-2.344-6.1 0-11.543.782-16.332 2.344-4.793 1.563-8.754 3.691-11.889 6.381-3.136 2.694-5.533 5.86-7.186 9.506-1.658 3.646-2.483 7.553-2.483 11.72 0 5.384 2.221 9.897 6.664 13.543 4.442 3.646 9.97 7.076 16.593 10.287a874.176 874.176 0 0 0 21.427 10.027 103.997 103.997 0 0 1 21.427 13.022c6.619 5.209 12.106 11.549 16.462 19.012 4.353 7.467 6.533 16.843 6.533 28.127 0 13.197-2.527 25.393-7.578 36.592-5.054 11.199-12.412 20.88-22.08 29.039-9.669 8.163-21.427 14.543-35.277 19.142-13.849 4.598-29.487 6.901-46.905 6.901-8.361 0-16.331-.61-23.909-1.823-7.578-1.216-14.372-2.694-20.382-4.427-6.01-1.734-11.106-3.732-15.287-5.99-4.181-2.255-7.316-4.338-9.407-6.251-1.396-1.387-2.397-2.864-3.005-4.427-.612-1.563-.914-3.557-.914-5.99 0-1.563.13-3.557.391-5.99.262-2.43.695-5.12 1.307-8.074.608-2.95 1.307-5.9 2.09-8.855.784-2.95 1.699-5.64 2.744-8.073 1.045-2.43 2.176-4.383 3.397-5.86 1.217-1.473 2.523-2.214 3.92-2.214 2.437 0 5.136 1.042 8.1 3.125 2.961 2.084 6.794 4.387 11.498 6.902 4.703 2.519 10.493 4.863 17.377 7.032 6.88 2.173 15.458 3.255 25.739 3.255 7.141 0 13.367-.822 18.683-2.474 5.312-1.648 9.709-3.947 13.196-6.902 3.483-2.95 6.051-6.336 7.709-10.157 1.653-3.817 2.482-7.898 2.482-12.24 0-6.076-2.135-11.024-6.402-14.845-4.27-3.817-9.627-7.378-16.07-10.678-6.447-3.296-13.458-6.682-21.035-10.157-7.578-3.471-14.593-7.724-21.036-12.762-6.447-5.034-11.804-11.284-16.07-18.751-4.271-7.464-6.402-16.839-6.402-28.128 0-12.326 2.352-23.785 7.055-34.378 4.704-10.588 11.583-19.834 20.643-27.736 9.056-7.899 20.031-14.064 32.925-18.491 12.89-4.428 27.523-6.642 43.9-6.642 7.317 0 14.413.481 21.296 1.433 6.88.956 13.066 2.214 18.553 3.776 5.488 1.563 10.277 3.3 14.372 5.209 4.091 1.913 7.011 3.821 8.754 5.73 1.915 1.737 2.875 4.688 2.875 8.855 0 2.083-.307 5.168-.915 9.245a93.786 93.786 0 0 1-2.744 12.371Z"/>
</svg>
