<svg
 xmlns="http://www.w3.org/2000/svg"
 xmlns:xlink="http://www.w3.org/1999/xlink"
 width="164px" height="48px">
<path fill-rule="evenodd"  fill="rgb(255, 255, 255)"
 d="M27.690,15.607 C35.094,15.607 41.095,21.579 41.095,28.946 C41.095,36.314 35.094,42.286 27.690,42.286 C20.286,42.286 14.285,36.314 14.285,28.946 C14.285,21.579 20.286,15.607 27.690,15.607 Z"/>
<path fill-rule="evenodd"  fill="rgb(0, 0, 102)"
 d="M35.580,19.818 C35.440,19.666 35.206,19.515 34.878,19.363 C34.549,19.212 34.165,19.074 33.725,18.950 C33.285,18.826 32.789,18.727 32.237,18.651 C31.685,18.575 31.116,18.537 30.529,18.537 C29.216,18.537 28.042,18.713 27.009,19.064 C25.974,19.415 25.094,19.904 24.368,20.530 C23.641,21.157 23.090,21.890 22.712,22.730 C22.335,23.570 22.147,24.478 22.147,25.456 C22.147,26.351 22.318,27.094 22.660,27.686 C23.002,28.278 23.432,28.774 23.949,29.173 C24.466,29.573 25.028,29.910 25.636,30.185 C26.244,30.461 26.806,30.729 27.323,30.991 C27.840,31.252 28.269,31.535 28.612,31.837 C28.954,32.140 29.125,32.533 29.125,33.015 C29.125,33.359 29.059,33.683 28.926,33.985 C28.793,34.288 28.587,34.557 28.308,34.791 C28.028,35.025 27.676,35.207 27.249,35.338 C26.823,35.469 26.324,35.534 25.751,35.534 C24.927,35.534 24.239,35.448 23.687,35.276 C23.135,35.104 22.671,34.918 22.293,34.718 C21.916,34.519 21.609,34.336 21.371,34.171 C21.134,34.006 20.917,33.923 20.722,33.923 C20.610,33.923 20.505,33.982 20.407,34.099 C20.309,34.216 20.219,34.371 20.135,34.563 C20.051,34.756 19.978,34.970 19.915,35.204 C19.852,35.438 19.796,35.672 19.747,35.906 C19.698,36.140 19.663,36.353 19.642,36.546 C19.621,36.739 19.611,36.897 19.611,37.021 C19.611,37.214 19.635,37.372 19.684,37.496 C19.733,37.620 19.813,37.737 19.925,37.847 C20.093,37.999 20.344,38.164 20.680,38.343 C21.015,38.522 21.424,38.680 21.906,38.818 C22.388,38.955 22.932,39.072 23.540,39.169 C24.148,39.265 24.787,39.314 25.458,39.314 C26.855,39.314 28.109,39.131 29.219,38.766 C30.330,38.402 31.273,37.896 32.048,37.248 C32.824,36.601 33.414,35.834 33.819,34.946 C34.224,34.058 34.427,33.090 34.427,32.044 C34.427,31.149 34.252,30.406 33.903,29.813 C33.554,29.222 33.114,28.719 32.583,28.306 C32.052,27.893 31.479,27.549 30.864,27.273 C30.249,26.998 29.677,26.733 29.146,26.478 C28.615,26.224 28.172,25.952 27.815,25.662 C27.459,25.373 27.281,25.015 27.281,24.588 C27.281,24.258 27.347,23.948 27.480,23.659 C27.613,23.370 27.805,23.119 28.056,22.905 C28.308,22.692 28.625,22.523 29.010,22.399 C29.394,22.275 29.830,22.213 30.320,22.213 C30.948,22.213 31.496,22.275 31.965,22.399 C32.433,22.523 32.841,22.665 33.191,22.823 C33.540,22.981 33.837,23.126 34.081,23.256 C34.325,23.387 34.539,23.453 34.720,23.453 C34.888,23.453 35.038,23.332 35.171,23.091 C35.304,22.850 35.419,22.565 35.517,22.234 C35.614,21.904 35.688,21.577 35.737,21.253 C35.786,20.930 35.810,20.685 35.810,20.520 C35.810,20.190 35.733,19.956 35.580,19.818 L35.580,19.818 Z"/>
<path fill-rule="evenodd"  fill="rgb(255, 255, 255)"
 d="M152.686,9.393 C151.836,9.393 151.147,8.713 151.147,7.875 C151.147,7.037 151.836,6.357 152.686,6.357 C153.536,6.357 154.226,7.037 154.226,7.875 C154.226,8.713 153.536,9.393 152.686,9.393 Z"/>
<path fill-rule="evenodd"  fill="rgb(255, 255, 255)"
 d="M146.368,9.393 C145.528,9.393 144.847,8.713 144.847,7.875 C144.847,7.037 145.528,6.357 146.368,6.357 C147.209,6.357 147.890,7.037 147.890,7.875 C147.890,8.713 147.209,9.393 146.368,9.393 Z"/>
<path fill-rule="evenodd"  fill="rgb(255, 255, 255)"
 d="M11.102,6.357 L83.152,6.357 C83.885,6.357 84.480,6.952 84.480,7.685 L84.480,8.065 C84.480,8.798 83.885,9.393 83.152,9.393 L11.102,9.393 C10.369,9.393 9.774,8.798 9.774,8.065 L9.774,7.685 C9.774,6.952 10.369,6.357 11.102,6.357 Z"/>
<path fill-rule="evenodd"  fill="rgb(255, 255, 255)"
 d="M130.328,36.000 L147.672,36.000 C148.406,36.000 149.000,36.594 149.000,37.328 L149.000,37.672 C149.000,38.406 148.406,39.000 147.672,39.000 L130.328,39.000 C129.594,39.000 129.000,38.406 129.000,37.672 L129.000,37.328 C129.000,36.594 129.594,36.000 130.328,36.000 Z"/>
<text kerning="auto" font-family="Myriad Pro" fill="rgb(0, 0, 0)" transform="matrix( 0.09, 0, 0, 0.08955223880597,44.31906, 38.1940298507463)" font-size="280px"><tspan font-size="280px" font-family="Calibri" font-weight="bold" font-style="italic" fill="#FFFFFF">ite&#32;&#51;&#56;</tspan></text>
<path fill-rule="evenodd"  stroke="rgb(50, 50, 51)" stroke-width="0px" stroke-linecap="butt" stroke-linejoin="miter" fill="none"
 d="M-0.000,-0.000 L164.000,-0.000 L164.000,48.000 L-0.000,48.000 L-0.000,-0.000 Z"/>
</svg>
