<svg xmlns="http://www.w3.org/2000/svg" width="58" height="30">
  <path fill-rule="evenodd" fill="#89CCCA" d="M43.5 30h-29C6.492 30 0 23.508 0 15.5v-1C0 6.492 6.492 0 14.5 0h29C51.508 0 58 6.492 58 14.5v1C58 23.508 51.508 30 43.5 30ZM14.818 19.195H8.754V7.778H7.058v12.797h7.76v-1.38Zm11.207-5.414c0-1.248-.211-2.342-.633-3.283-.422-.94-1.024-1.658-1.806-2.153-.783-.495-1.687-.743-2.712-.743-1.008 0-1.903.251-2.685.752s-1.387 1.223-1.815 2.166c-.428.944-.641 2.031-.641 3.261v.923c.011 1.207.232 2.269.663 3.186.431.917 1.036 1.623 1.815 2.118.779.495 1.673.743 2.681.743 1.031 0 1.933-.246 2.707-.738.773-.493 1.371-1.206 1.793-2.141.422-.934.633-2.028.633-3.282v-.809Zm11.979.422h-4.641v1.38h2.962v2.867c-.31.333-.703.57-1.177.711-.475.14-1.029.21-1.662.21-1.119 0-2.006-.424-2.663-1.271-.656-.847-.984-1.99-.984-3.426v-1.047c.006-1.507.3-2.658.883-3.453.583-.794 1.44-1.192 2.571-1.192 1.699 0 2.707.85 3.024 2.549h1.687c-.182-1.254-.68-2.222-1.494-2.905-.815-.682-1.89-1.024-3.226-1.024-1.629 0-2.893.531-3.792 1.591-.9 1.061-1.349 2.555-1.349 4.483v1.116c.011 1.189.238 2.235.681 3.138.442.902 1.068 1.598 1.876 2.087.809.489 1.735.734 2.778.734 1.031 0 1.935-.154 2.711-.462.776-.307 1.381-.771 1.815-1.393v-4.693Zm12.656-.422c0-1.248-.211-2.342-.633-3.283-.421-.94-1.023-1.658-1.806-2.153-.782-.495-1.686-.743-2.711-.743-1.008 0-1.903.251-2.685.752s-1.387 1.223-1.815 2.166c-.428.944-.642 2.031-.642 3.261v.923c.012 1.207.233 2.269.664 3.186.431.917 1.035 1.623 1.815 2.118.779.495 1.673.743 2.68.743 1.032 0 1.934-.246 2.708-.738.773-.493 1.371-1.206 1.792-2.141.422-.934.633-2.028.633-3.282v-.809Zm-5.133 5.537c-1.084 0-1.935-.42-2.553-1.261-.618-.841-.927-1.996-.927-3.467v-.941c.018-1.441.332-2.567.945-3.379.612-.812 1.451-1.217 2.518-1.217 1.096 0 1.948.405 2.558 1.217.609.812.914 1.976.914 3.494v.949c-.018 1.482-.326 2.62-.923 3.414-.598.794-1.442 1.191-2.532 1.191Zm-24.635 0c-1.084 0-1.935-.42-2.553-1.261-.619-.841-.928-1.996-.928-3.467v-.941c.018-1.441.333-2.567.945-3.379.612-.812 1.452-1.217 2.518-1.217 1.096 0 1.948.405 2.558 1.217.609.812.914 1.976.914 3.494v.949c-.018 1.482-.325 2.62-.923 3.414-.598.794-1.441 1.191-2.531 1.191Z"/>
</svg>
